<?xml version="1.0" standalone="no"?>
<!DOCTYPE svg PUBLIC "-//W3C//DTD SVG 20010904//EN"
 "http://www.w3.org/TR/2001/REC-SVG-20010904/DTD/svg10.dtd">
<svg version="1.0" xmlns="http://www.w3.org/2000/svg"
 width="500.000000pt" height="500.000000pt" viewBox="0 0 500.000000 500.000000"
 preserveAspectRatio="xMidYMid meet">
<metadata>
Created by potrace 1.14, written by Peter Selinger 2001-2017
</metadata>
<g transform="translate(0.000000,500.000000) scale(0.100000,-0.100000)"
fill="#000000" stroke="none">
<path d="M2215 4299 c-27 -4 -61 -10 -75 -14 -14 -3 -41 -8 -60 -11 -19 -3
-40 -10 -46 -15 -6 -5 -13 -7 -16 -4 -6 6 -91 -19 -144 -42 -22 -9 -46 -18
-55 -19 -52 -10 -349 -168 -349 -186 0 -4 -5 -8 -11 -8 -12 0 -101 -69 -107
-82 -2 -5 -8 -8 -14 -8 -11 0 -221 -209 -256 -255 -65 -87 -122 -169 -122
-176 0 -4 -6 -14 -12 -21 -32 -34 -157 -307 -173 -376 -2 -9 -11 -42 -20 -72
-9 -30 -18 -66 -21 -80 -2 -14 -7 -32 -11 -40 -3 -8 -7 -28 -8 -45 -1 -16 -3
-30 -5 -30 -1 0 -4 -16 -6 -35 -2 -19 -6 -51 -9 -70 -10 -73 -13 -445 -3 -457
7 -9 7 -13 -1 -13 -7 0 -10 -4 -7 -8 2 -4 8 -50 12 -102 8 -107 12 -145 14
-145 1 0 3 -13 5 -30 2 -16 6 -48 10 -70 4 -22 8 -48 8 -57 1 -10 5 -18 9 -18
4 0 6 -8 6 -17 -1 -21 3 -36 33 -153 12 -47 26 -89 32 -95 7 -7 8 -6 3 3 -4 7
-2 19 4 27 7 8 8 15 3 15 -6 0 -8 52 -6 128 5 178 4 675 -1 872 -3 99 -1 185
5 215 6 28 11 58 11 68 -1 9 3 17 8 17 5 0 7 7 4 15 -3 8 -2 20 2 27 5 7 10
22 11 32 4 26 108 239 125 257 7 8 33 41 58 74 58 79 208 225 230 225 5 0 10
3 12 8 5 11 66 52 78 52 5 0 10 4 10 8 0 8 116 69 210 110 37 16 88 33 143 48
4 1 9 3 12 4 3 1 13 3 23 5 9 1 24 4 32 8 41 15 175 28 350 32 74 2 137 4 140
5 8 3 397 0 540 -4 136 -4 256 -12 297 -20 11 -3 43 -8 70 -12 26 -5 50 -8 53
-9 30 -6 160 -52 177 -63 12 -7 24 -13 27 -13 9 0 81 -31 86 -38 3 -3 22 -15
43 -26 20 -11 37 -23 37 -27 0 -5 5 -8 11 -8 14 0 112 -76 169 -132 54 -52
160 -183 160 -197 0 -6 5 -11 10 -11 6 0 10 -7 10 -15 0 -8 5 -15 12 -15 6 0
8 -3 5 -6 -4 -4 2 -19 13 -34 27 -37 90 -187 83 -194 -4 -3 -1 -6 6 -6 6 0 11
-6 10 -12 -1 -7 0 -20 3 -28 7 -19 26 -95 32 -135 17 -95 19 -180 20 -687 0
-307 3 -558 7 -558 5 0 33 87 55 175 29 117 53 323 59 505 1 41 3 75 4 75 7 0
5 68 -2 72 -4 2 -4 10 0 16 10 17 11 237 1 243 -4 3 -4 13 2 23 5 10 7 21 4
23 -2 3 -7 23 -10 44 -16 128 -38 227 -77 344 -11 36 -20 68 -19 73 1 4 -2 7
-6 7 -5 0 -9 6 -9 13 0 6 -12 38 -26 70 -15 31 -27 59 -27 62 0 4 -8 19 -58
108 -34 59 -86 142 -97 153 -5 6 -17 22 -25 34 -23 34 -51 71 -85 110 -82 96
-282 280 -303 280 -5 0 -19 11 -32 25 -13 14 -29 25 -35 25 -6 0 -20 8 -31 18
-10 9 -37 26 -59 38 -22 11 -60 32 -85 46 -25 13 -48 25 -53 26 -4 1 -24 9
-45 18 -61 25 -213 74 -233 74 -10 0 -20 4 -24 9 -3 6 -13 9 -23 9 -9 0 -30 3
-47 6 -16 4 -43 10 -60 12 -16 3 -41 8 -55 11 -42 9 -492 11 -545 2z"/>
<path d="M2225 3581 c-2 -1 -73 -5 -157 -7 -147 -3 -184 -6 -238 -18 -77 -17
-120 -31 -120 -38 0 -5 -4 -7 -10 -3 -5 3 -48 -13 -96 -35 -318 -148 -537
-425 -570 -720 -11 -90 -4 -297 11 -319 3 -5 1 -12 -5 -16 -6 -4 -8 -11 -4
-16 6 -11 11 -96 19 -344 2 -93 7 -242 10 -331 5 -185 11 -252 24 -287 6 -14
7 -27 4 -30 -8 -8 46 -155 80 -217 57 -103 63 -112 147 -199 142 -147 337
-240 535 -256 28 -3 79 -7 115 -10 266 -24 798 -23 1060 1 30 2 64 5 75 5 11
0 47 4 80 11 33 6 67 12 75 13 8 1 26 7 40 12 14 6 43 16 65 24 22 8 42 16 45
19 3 3 27 16 53 30 208 108 398 378 423 600 6 49 12 85 14 85 1 0 4 37 14 225
3 47 6 85 7 85 1 0 2 20 4 45 1 25 6 101 10 170 14 232 8 626 -11 710 -3 14
-8 38 -10 54 -17 89 -102 283 -146 330 -10 11 -18 23 -18 27 0 6 -11 19 -86
101 -135 147 -343 251 -569 284 -72 11 -861 25 -870 15z m-500 -981 c71 27
217 -34 284 -119 43 -54 82 -136 85 -176 1 -19 5 -37 8 -41 4 -4 4 -12 1 -17
-4 -6 -8 -23 -10 -38 -5 -51 -50 -134 -97 -180 -171 -171 -432 -122 -547 102
-11 23 -22 60 -24 83 -2 23 -5 43 -6 46 -1 3 0 10 1 15 1 6 3 21 4 35 4 30 20
74 43 115 17 31 21 35 51 70 34 40 173 120 180 103 2 -4 14 -3 27 2z m1573 -3
c65 -16 171 -97 199 -152 9 -16 19 -32 23 -35 14 -10 39 -135 34 -170 -6 -40
-33 -118 -49 -139 -30 -42 -115 -119 -148 -134 -55 -26 -74 -30 -149 -32 -55
-2 -77 3 -127 27 -61 29 -137 97 -162 145 -8 16 -18 31 -24 35 -5 4 -7 8 -3 8
4 0 3 12 -3 28 -16 42 -18 139 -3 183 38 109 100 170 243 238 16 8 134 6 169
-2z"/>
<path d="M4510 2365 c0 -203 4 -305 10 -295 14 22 50 135 58 183 13 76 8 199
-10 277 -10 38 -41 126 -49 135 -5 5 -9 -123 -9 -300z"/>
<path d="M391 2358 c0 -132 5 -211 14 -240 17 -58 48 -128 56 -128 4 0 7 26 8
58 0 31 0 113 1 182 0 69 -3 139 -9 157 -5 17 -7 34 -3 37 3 3 0 6 -7 6 -7 0
-10 3 -8 8 3 4 -8 32 -24 62 l-28 55 0 -197z"/>
</g>
</svg>
